<svg xmlns="http://www.w3.org/2000/svg" xmlns:xlink="http://www.w3.org/1999/xlink" contentStyleType="text/css" data-diagram-type="DESCRIPTION" height="775px" preserveAspectRatio="none" style="width:1185px;height:775px;background:#FFFFFF;" version="1.1" viewBox="0 0 1185 775" width="1185px" zoomAndPan="magnify"><defs/><g><!--entity Quilt4Net.Toolkit--><g class="entity" data-entity="Quilt4Net.Toolkit" data-source-line="6" data-uid="ent0002" id="entity_Quilt4Net.Toolkit"><rect fill="#3498DB" height="36.2969" rx="2.5" ry="2.5" style="stroke:#000000;stroke-width:1;" width="138.1523" x="391" y="485.5"/><text fill="#000000" font-family="Verdana" font-size="14" lengthAdjust="spacing" textLength="118.1523" x="401" y="508.4951">Quilt4Net.Toolkit</text></g><!--entity Quilt4Net.Toolkit.Api--><g class="entity" data-entity="Quilt4Net.Toolkit.Api" data-source-line="7" data-uid="ent0003" id="entity_Quilt4Net.Toolkit.Api"><rect fill="#3498DB" height="36.2969" rx="2.5" ry="2.5" style="stroke:#000000;stroke-width:1;" width="164.9561" x="22.5" y="626.5"/><text fill="#000000" font-family="Verdana" font-size="14" lengthAdjust="spacing" textLength="144.9561" x="32.5" y="649.4951">Quilt4Net.Toolkit.Api</text></g><!--entity Quilt4Net.Toolkit.Blazor--><g class="entity" data-entity="Quilt4Net.Toolkit.Blazor" data-source-line="8" data-uid="ent0004" id="entity_Quilt4Net.Toolkit.Blazor"><rect fill="#3498DB" height="36.2969" rx="2.5" ry="2.5" style="stroke:#000000;stroke-width:1;" width="186.3457" x="12" y="272.5"/><text fill="#000000" font-family="Verdana" font-size="14" lengthAdjust="spacing" textLength="166.3457" x="22" y="295.4951">Quilt4Net.Toolkit.Blazor</text></g><!--entity _629364333--><g class="entity" data-entity="_629364333" data-source-line="11" data-uid="ent0005" id="entity__629364333"><rect fill="#ECF0F1" height="36.2969" rx="2.5" ry="2.5" style="stroke:#000000;stroke-width:1;" width="175.5381" x="863" y="272.5"/><text fill="#000000" font-family="Verdana" font-size="14" lengthAdjust="spacing" textLength="155.5381" x="873" y="295.4951">Azure.Identity v1.15.0</text></g><!--entity _623459337--><g class="entity" data-entity="_623459337" data-source-line="12" data-uid="ent0006" id="entity__623459337"><rect fill="#ECF0F1" height="36.2969" rx="2.5" ry="2.5" style="stroke:#000000;stroke-width:1;" width="213.1904" x="844.5" y="343.5"/><text fill="#000000" font-family="Verdana" font-size="14" lengthAdjust="spacing" textLength="193.1904" x="854.5" y="366.4951">Azure.Monitor.Query v1.7.1</text></g><!--entity _103673492--><g class="entity" data-entity="_103673492" data-source-line="13" data-uid="ent0007" id="entity__103673492"><rect fill="#ECF0F1" height="36.2969" rx="2.5" ry="2.5" style="stroke:#000000;stroke-width:1;" width="362.5625" x="769.5" y="130.5"/><text fill="#000000" font-family="Verdana" font-size="14" lengthAdjust="spacing" textLength="342.5625" x="779.5" y="153.4951">Microsoft.Extensions.Configuration.Binder v9.0.8</text></g><!--entity _1188999270--><g class="entity" data-entity="_1188999270" data-source-line="14" data-uid="ent0008" id="entity__1188999270"><rect fill="#ECF0F1" height="36.2969" rx="2.5" ry="2.5" style="stroke:#000000;stroke-width:1;" width="457.5273" x="722" y="414.5"/><text fill="#000000" font-family="Verdana" font-size="14" lengthAdjust="spacing" textLength="437.5273" x="732" y="437.4951">Microsoft.Extensions.DependencyInjection.Abstractions v9.0.8</text></g><!--entity __451738671--><g class="entity" data-entity="__451738671" data-source-line="15" data-uid="ent0009" id="entity___451738671"><rect fill="#ECF0F1" height="36.2969" rx="2.5" ry="2.5" style="stroke:#000000;stroke-width:1;" width="273.333" x="814.5" y="485.5"/><text fill="#000000" font-family="Verdana" font-size="14" lengthAdjust="spacing" textLength="253.333" x="824.5" y="508.4951">Microsoft.Extensions.Logging v9.0.8</text></g><!--entity _1305839485--><g class="entity" data-entity="_1305839485" data-source-line="16" data-uid="ent0010" id="entity__1305839485"><rect fill="#ECF0F1" height="36.2969" rx="2.5" ry="2.5" style="stroke:#000000;stroke-width:1;" width="200.6396" x="850.5" y="556.5"/><text fill="#000000" font-family="Verdana" font-size="14" lengthAdjust="spacing" textLength="180.6396" x="860.5" y="579.4951">System.Linq.Async v6.0.3</text></g><!--entity _249501629--><g class="entity" data-entity="_249501629" data-source-line="17" data-uid="ent0011" id="entity__249501629"><rect fill="#ECF0F1" height="36.2969" rx="2.5" ry="2.5" style="stroke:#000000;stroke-width:1;" width="267.0986" x="817.5" y="627.5"/><text fill="#000000" font-family="Verdana" font-size="14" lengthAdjust="spacing" textLength="247.0986" x="827.5" y="650.4951">Microsoft.SourceLink.GitHub v8.0.0</text></g><!--entity __1588050910--><g class="entity" data-entity="__1588050910" data-source-line="18" data-uid="ent0012" id="entity___1588050910"><rect fill="#ECF0F1" height="36.2969" rx="2.5" ry="2.5" style="stroke:#000000;stroke-width:1;" width="278.9316" x="320.5" y="662.5"/><text fill="#000000" font-family="Verdana" font-size="14" lengthAdjust="spacing" textLength="258.9316" x="330.5" y="685.4951">Microsoft.ApplicationInsights v2.23.0</text></g><!--entity __215071953--><g class="entity" data-entity="__215071953" data-source-line="19" data-uid="ent0013" id="entity___215071953"><rect fill="#ECF0F1" height="36.2969" rx="2.5" ry="2.5" style="stroke:#000000;stroke-width:1;" width="217.2373" x="351.5" y="733.5"/><text fill="#000000" font-family="Verdana" font-size="14" lengthAdjust="spacing" textLength="197.2373" x="361.5" y="756.4951">System.Management v9.0.8</text></g><!--entity _8328335--><g class="entity" data-entity="_8328335" data-source-line="20" data-uid="ent0014" id="entity__8328335"><rect fill="#ECF0F1" height="36.2969" rx="2.5" ry="2.5" style="stroke:#000000;stroke-width:1;" width="379.4063" x="270.5" y="130.5"/><text fill="#000000" font-family="Verdana" font-size="14" lengthAdjust="spacing" textLength="359.4063" x="280.5" y="153.4951">Microsoft.Authentication.WebAssembly.Msal v9.0.8</text></g><!--entity __1289703355--><g class="entity" data-entity="__1289703355" data-source-line="21" data-uid="ent0015" id="entity___1289703355"><rect fill="#ECF0F1" height="36.2969" rx="2.5" ry="2.5" style="stroke:#000000;stroke-width:1;" width="404.3301" x="258" y="201.5"/><text fill="#000000" font-family="Verdana" font-size="14" lengthAdjust="spacing" textLength="384.3301" x="268" y="224.4951">Microsoft.Extensions.Configuration.Abstractions v9.0.8</text></g><!--entity __1881297890--><g class="entity" data-entity="__1881297890" data-source-line="22" data-uid="ent0016" id="entity___1881297890"><rect fill="#ECF0F1" height="36.2969" rx="2.5" ry="2.5" style="stroke:#000000;stroke-width:1;" width="244.6152" x="337.5" y="272.5"/><text fill="#000000" font-family="Verdana" font-size="14" lengthAdjust="spacing" textLength="224.6152" x="347.5" y="295.4951">Microsoft.Identity.Client v4.76.0</text></g><!--entity _820793147--><g class="entity" data-entity="_820793147" data-source-line="23" data-uid="ent0017" id="entity__820793147"><rect fill="#ECF0F1" height="36.2969" rx="2.5" ry="2.5" style="stroke:#000000;stroke-width:1;" width="168.5791" x="375.5" y="343.5"/><text fill="#000000" font-family="Verdana" font-size="14" lengthAdjust="spacing" textLength="148.5791" x="385.5" y="366.4951">Radzen.Blazor v7.3.3</text></g><!--entity _300951675--><g class="entity" data-entity="_300951675" data-source-line="24" data-uid="ent0018" id="entity__300951675"><rect fill="#EC00F1" height="36.2969" rx="2.5" ry="2.5" style="stroke:#000000;stroke-width:1;" width="174.6836" x="372.5" y="414.5"/><text fill="#000000" font-family="Verdana" font-size="14" lengthAdjust="spacing" textLength="154.6836" x="382.5" y="437.4951">Tharga.Blazor v0.0.24</text></g><!--link Quilt4Net.Toolkit to _629364333--><g class="link" data-entity-1="Quilt4Net.Toolkit" data-entity-2="_629364333" data-source-line="26" data-uid="lnk19" id="link_Quilt4Net.Toolkit__629364333"><path d="M529.15,506.97 C571.56,505.63 624.89,497.15 662,467.5 C715.53,424.73 667.94,367.6 722,325.5 C761.42,294.8 810.5622,285.8723 856.7422,284.6223" fill="none" id="Quilt4Net.Toolkit-to-_629364333" style="stroke:#000000;stroke-width:1;"/><polygon fill="#000000" points="862.74,284.46,853.6351,280.705,857.7418,284.5953,853.8515,288.7021,862.74,284.46" style="stroke:#000000;stroke-width:1;"/></g><!--link Quilt4Net.Toolkit to _623459337--><g class="link" data-entity-1="Quilt4Net.Toolkit" data-entity-2="_623459337" data-source-line="27" data-uid="lnk20" id="link_Quilt4Net.Toolkit__623459337"><path d="M529.19,502.73 C570.08,499.59 621.77,490.7 662,467.5 C697.79,446.86 685.96,416.7 722,396.5 C758.86,375.85 798.0909,366.8786 838.5009,362.7586" fill="none" id="Quilt4Net.Toolkit-to-_623459337" style="stroke:#000000;stroke-width:1;"/><polygon fill="#000000" points="844.47,362.15,835.1107,359.0835,839.4958,362.6571,835.9221,367.0422,844.47,362.15" style="stroke:#000000;stroke-width:1;"/></g><!--link Quilt4Net.Toolkit to _103673492--><g class="link" data-entity-1="Quilt4Net.Toolkit" data-entity-2="_103673492" data-source-line="28" data-uid="lnk21" id="link_Quilt4Net.Toolkit__103673492"><path d="M529.03,508.53 C572.19,507.97 626.42,499.77 662,467.5 C734.85,401.42 658.26,329.4 722,254.5 C760.62,209.12 817.1397,183.7787 866.8497,168.3487" fill="none" id="Quilt4Net.Toolkit-to-_103673492" style="stroke:#000000;stroke-width:1;"/><polygon fill="#000000" points="872.58,166.57,862.7988,165.4178,867.8048,168.0522,865.1703,173.0582,872.58,166.57" style="stroke:#000000;stroke-width:1;"/></g><!--link Quilt4Net.Toolkit to _1188999270--><g class="link" data-entity-1="Quilt4Net.Toolkit" data-entity-2="_1188999270" data-source-line="29" data-uid="lnk22" id="link_Quilt4Net.Toolkit__1188999270"><path d="M529.25,493.59 C605.81,482.47 725.6422,465.0718 819.7622,451.4118" fill="none" id="Quilt4Net.Toolkit-to-_1188999270" style="stroke:#000000;stroke-width:1;"/><polygon fill="#000000" points="825.7,450.55,816.2188,447.8841,820.7518,451.2681,817.3678,455.8012,825.7,450.55" style="stroke:#000000;stroke-width:1;"/></g><!--link Quilt4Net.Toolkit to __451738671--><g class="link" data-entity-1="Quilt4Net.Toolkit" data-entity-2="__451738671" data-source-line="30" data-uid="lnk23" id="link_Quilt4Net.Toolkit___451738671"><path d="M529.25,503.5 C602.79,503.5 715.73,503.5 808.42,503.5" fill="none" id="Quilt4Net.Toolkit-to-__451738671" style="stroke:#000000;stroke-width:1;"/><polygon fill="#000000" points="814.42,503.5,805.42,499.5,809.42,503.5,805.42,507.5,814.42,503.5" style="stroke:#000000;stroke-width:1;"/></g><!--link Quilt4Net.Toolkit to _1305839485--><g class="link" data-entity-1="Quilt4Net.Toolkit" data-entity-2="_1305839485" data-source-line="31" data-uid="lnk24" id="link_Quilt4Net.Toolkit__1305839485"><path d="M529.25,513.41 C612.64,525.52 748.4622,545.238 844.1422,559.128" fill="none" id="Quilt4Net.Toolkit-to-_1305839485" style="stroke:#000000;stroke-width:1;"/><polygon fill="#000000" points="850.08,559.99,841.748,554.7385,845.1319,559.2717,840.5987,562.6555,850.08,559.99" style="stroke:#000000;stroke-width:1;"/></g><!--link Quilt4Net.Toolkit to _249501629--><g class="link" data-entity-1="Quilt4Net.Toolkit" data-entity-2="_249501629" data-source-line="32" data-uid="lnk25" id="link_Quilt4Net.Toolkit__249501629"><path d="M507.46,521.54 C548.31,537.5 609.28,561.59 662,583.5 C688.84,594.65 694.09,601.39 722,609.5 C752.4,618.33 779.8297,624.1655 811.4197,629.3655" fill="none" id="Quilt4Net.Toolkit-to-_249501629" style="stroke:#000000;stroke-width:1;"/><polygon fill="#000000" points="817.34,630.34,809.1092,624.9313,812.4064,629.5279,807.8098,632.8251,817.34,630.34" style="stroke:#000000;stroke-width:1;"/></g><!--link Quilt4Net.Toolkit.Api to Quilt4Net.Toolkit--><g class="link" data-entity-1="Quilt4Net.Toolkit.Api" data-entity-2="Quilt4Net.Toolkit" data-source-line="33" data-uid="lnk26" id="link_Quilt4Net.Toolkit.Api_Quilt4Net.Toolkit"><path d="M150.88,626.45 C181.14,614.29 221.96,597.9 258,583.5 C311.36,562.17 367.154,539.9754 407.904,523.7854" fill="none" id="Quilt4Net.Toolkit.Api-to-Quilt4Net.Toolkit" style="stroke:#000000;stroke-width:1;"/><polygon fill="#000000" points="413.48,521.57,403.639,521.1757,408.8333,523.4161,406.5929,528.6104,413.48,521.57" style="stroke:#000000;stroke-width:1;"/></g><!--link Quilt4Net.Toolkit.Api to __1588050910--><g class="link" data-entity-1="Quilt4Net.Toolkit.Api" data-entity-2="__1588050910" data-source-line="34" data-uid="lnk27" id="link_Quilt4Net.Toolkit.Api___1588050910"><path d="M187.87,652.85 C227.18,656.86 269.411,661.1611 314.211,665.7311" fill="none" id="Quilt4Net.Toolkit.Api-to-__1588050910" style="stroke:#000000;stroke-width:1;"/><polygon fill="#000000" points="320.18,666.34,311.6324,661.4473,315.2058,665.8326,310.8205,669.406,320.18,666.34" style="stroke:#000000;stroke-width:1;"/></g><!--link Quilt4Net.Toolkit.Api to __215071953--><g class="link" data-entity-1="Quilt4Net.Toolkit.Api" data-entity-2="__215071953" data-source-line="35" data-uid="lnk28" id="link_Quilt4Net.Toolkit.Api___215071953"><path d="M138.21,662.56 C168.32,678.7 214.97,701.85 258,715.5 C287.74,724.93 314.8712,731.0878 345.4312,736.4778" fill="none" id="Quilt4Net.Toolkit.Api-to-__215071953" style="stroke:#000000;stroke-width:1;"/><polygon fill="#000000" points="351.34,737.52,343.1716,732.0176,346.416,736.6515,341.782,739.896,351.34,737.52" style="stroke:#000000;stroke-width:1;"/></g><!--link Quilt4Net.Toolkit.Api to _249501629--><g class="link" data-entity-1="Quilt4Net.Toolkit.Api" data-entity-2="_249501629" data-source-line="36" data-uid="lnk29" id="link_Quilt4Net.Toolkit.Api__249501629"><path d="M187.96,644.41 C296.41,644.31 493.56,644.21 662,644.5 C712.75,644.59 762.53,644.7379 811.37,644.9179" fill="none" id="Quilt4Net.Toolkit.Api-to-_249501629" style="stroke:#000000;stroke-width:1;"/><polygon fill="#000000" points="817.37,644.94,808.3848,640.9069,812.37,644.9216,808.3553,648.9068,817.37,644.94" style="stroke:#000000;stroke-width:1;"/></g><!--link Quilt4Net.Toolkit.Blazor to Quilt4Net.Toolkit--><g class="link" data-entity-1="Quilt4Net.Toolkit.Blazor" data-entity-2="Quilt4Net.Toolkit" data-source-line="37" data-uid="lnk30" id="link_Quilt4Net.Toolkit.Blazor_Quilt4Net.Toolkit"><path d="M115.78,308.62 C136.59,345.28 189.07,428.11 258,467.5 C298.32,490.54 344.0282,498.963 384.8882,502.153" fill="none" id="Quilt4Net.Toolkit.Blazor-to-Quilt4Net.Toolkit" style="stroke:#000000;stroke-width:1;"/><polygon fill="#000000" points="390.87,502.62,382.2086,497.9316,385.8852,502.2308,381.586,505.9074,390.87,502.62" style="stroke:#000000;stroke-width:1;"/></g><!--link Quilt4Net.Toolkit.Blazor to _8328335--><g class="link" data-entity-1="Quilt4Net.Toolkit.Blazor" data-entity-2="_8328335" data-source-line="38" data-uid="lnk31" id="link_Quilt4Net.Toolkit.Blazor__8328335"><path d="M125.42,272.47 C152.77,248.15 205.23,205.37 258,183.5 C274.77,176.55 287.0517,172.4051 305.2917,167.9451" fill="none" id="Quilt4Net.Toolkit.Blazor-to-_8328335" style="stroke:#000000;stroke-width:1;"/><polygon fill="#000000" points="311.12,166.52,301.4275,164.7722,306.2631,167.7076,303.3276,172.5432,311.12,166.52" style="stroke:#000000;stroke-width:1;"/></g><!--link Quilt4Net.Toolkit.Blazor to __1289703355--><g class="link" data-entity-1="Quilt4Net.Toolkit.Blazor" data-entity-2="__1289703355" data-source-line="39" data-uid="lnk32" id="link_Quilt4Net.Toolkit.Blazor___1289703355"><path d="M178.1,272.49 C203.3,266.44 231.83,259.87 258,254.5 C287.23,248.5 313.0793,243.6913 342.5393,238.5513" fill="none" id="Quilt4Net.Toolkit.Blazor-to-__1289703355" style="stroke:#000000;stroke-width:1;"/><polygon fill="#000000" points="348.45,237.52,338.8964,235.1264,343.5244,238.3794,340.2714,243.0074,348.45,237.52" style="stroke:#000000;stroke-width:1;"/></g><!--link Quilt4Net.Toolkit.Blazor to _103673492--><g class="link" data-entity-1="Quilt4Net.Toolkit.Blazor" data-entity-2="_103673492" data-source-line="40" data-uid="lnk33" id="link_Quilt4Net.Toolkit.Blazor__103673492"><path d="M114.62,272.42 C133.96,234.25 184.93,146.19 258,112.5 C478.14,11 774.7483,89.7218 893.4983,128.6318" fill="none" id="Quilt4Net.Toolkit.Blazor-to-_103673492" style="stroke:#000000;stroke-width:1;"/><polygon fill="#000000" points="899.2,130.5,891.8929,123.8965,894.4486,128.9431,889.4019,131.4988,899.2,130.5" style="stroke:#000000;stroke-width:1;"/></g><!--link Quilt4Net.Toolkit.Blazor to __1881297890--><g class="link" data-entity-1="Quilt4Net.Toolkit.Blazor" data-entity-2="__1881297890" data-source-line="41" data-uid="lnk34" id="link_Quilt4Net.Toolkit.Blazor___1881297890"><path d="M198.29,290.5 C240.78,290.5 285.77,290.5 331.35,290.5" fill="none" id="Quilt4Net.Toolkit.Blazor-to-__1881297890" style="stroke:#000000;stroke-width:1;"/><polygon fill="#000000" points="337.35,290.5,328.35,286.5,332.35,290.5,328.35,294.5,337.35,290.5" style="stroke:#000000;stroke-width:1;"/></g><!--link Quilt4Net.Toolkit.Blazor to _820793147--><g class="link" data-entity-1="Quilt4Net.Toolkit.Blazor" data-entity-2="_820793147" data-source-line="42" data-uid="lnk35" id="link_Quilt4Net.Toolkit.Blazor__820793147"><path d="M180.83,308.5 C205.37,314.2 232.8,320.34 258,325.5 C296.38,333.35 333.1594,340.098 369.2994,346.408" fill="none" id="Quilt4Net.Toolkit.Blazor-to-_820793147" style="stroke:#000000;stroke-width:1;"/><polygon fill="#000000" points="375.21,347.44,367.0321,341.9516,370.2845,346.58,365.6561,349.8324,375.21,347.44" style="stroke:#000000;stroke-width:1;"/></g><!--link Quilt4Net.Toolkit.Blazor to _300951675--><g class="link" data-entity-1="Quilt4Net.Toolkit.Blazor" data-entity-2="_300951675" data-source-line="43" data-uid="lnk36" id="link_Quilt4Net.Toolkit.Blazor__300951675"><path d="M125.93,308.73 C153.47,332.84 205.7,374.81 258,396.5 C293.86,411.37 329.8791,419.2597 366.1491,424.3897" fill="none" id="Quilt4Net.Toolkit.Blazor-to-_300951675" style="stroke:#000000;stroke-width:1;"/><polygon fill="#000000" points="372.09,425.23,363.7389,420.009,367.1393,424.5298,362.6185,427.9302,372.09,425.23" style="stroke:#000000;stroke-width:1;"/></g><!--SRC=[bPHDRzem6CVl-HIUUjYfbXqdiNsPb7RJXbIgTQsqmrGX4qpg4kpCTj3WqzUy9C1AOBiH-VT_NlyF7_oBd4jGLqBfoCsKheKLSt1hvhNHKlj7lwmaiBBmGfULZ2evzS0RO5Nvui54hL-KqL7q4NotvZLykUZNGwCgdznB3v-CgMRAFuChad0s6PzuWtcjphxVL69bx1u9gUwRKdfGYs8cIXaIvgl6IZYOX8ALNu85XZY5w1a81qPPp4cM44B0bIocQ8fRV6YqyiR2XqRQZOP2t4f8ad92w5uoL8Krpamz_FB7I-r2pmxU6ZrLPMF5UWJmHkc9j6318O9i6mWZaj5GTdmXq6TPoo3MnNAWNxSJXVdOUIislzrnKCmOvpocw4BKErEMIfT7ub6IOafOHl5U_BXqNixXdTA_OUwMkW2BB2Z8BXr1AICyOUcfT8-ciOKCqXdyglotPWmMB6XtiuyJdY8SDd1AcjTrfOhDx0QXuk2dq6SCOzAgHpXb3AM8O_IksA7GOVNpiF3ZzcAS8efvIavcR8BRWqMsIU5FESwTa_DnjOH39wgZI8p4Z93qlnpGkx8HZXcdACGx6R0rBhojrAQZ1D9iFmN6SCmfumTJ-24cAwbtfm4M599sNIn6b1ES77ZtwKNOKdHms0wCaorD4E8fpkYcBBIcetS72AwlFnsSKJ-mEve-e3k6Ng0pTX-nTszlZCwjVKJdoUZaNz46UlToXZsqwLcii-OvwbnrkmN-Qu47UElc2zI1JI-GPtRvLyJEl9SgR7rxWUiS-mO0]--></g></svg>